<svg width="334" height="147" viewBox="0 0 334 147" fill="none" xmlns="http://www.w3.org/2000/svg">
<path d="M88.1641 91.4844H104.277V114.238H88.1641V145H59.9414V114.238H1.64062L0.371094 96.4648L59.6484 2.8125H88.1641V91.4844ZM28.4961 91.4844H59.9414V41.2891L58.0859 44.5117L28.4961 91.4844ZM317.852 91.4844H333.965V114.238H317.852V145H289.629V114.238H231.328L230.059 96.4648L289.336 2.8125H317.852V91.4844ZM258.184 91.4844H289.629V41.2891L287.773 44.5117L258.184 91.4844Z" fill="white"/>
<path d="M215.215 86.2109C215.215 105.872 211.146 120.911 203.008 131.328C194.87 141.745 182.956 146.953 167.266 146.953C151.771 146.953 139.922 141.842 131.719 131.621C123.516 121.4 119.316 106.751 119.121 87.6758V61.5039C119.121 41.6471 123.223 26.5755 131.426 16.2891C139.694 6.0026 151.576 0.859375 167.07 0.859375C182.565 0.859375 194.414 5.97005 202.617 16.1914C210.82 26.3477 215.02 40.9635 215.215 60.0391V86.2109ZM186.992 57.5C186.992 45.7161 185.365 37.1549 182.109 31.8164C178.919 26.4128 173.906 23.7109 167.07 23.7109C160.43 23.7109 155.514 26.2826 152.324 31.4258C149.199 36.5039 147.539 44.4792 147.344 55.3516V89.9219C147.344 101.51 148.906 110.137 152.031 115.801C155.221 121.4 160.299 124.199 167.266 124.199C174.167 124.199 179.147 121.497 182.207 116.094C185.267 110.69 186.862 102.422 186.992 91.2891V57.5Z" fill="#FF647C"/>
</svg>
