<svg width="115" height="115" viewBox="0 0 115 115" fill="none" xmlns="http://www.w3.org/2000/svg">
<path d="M57.5 115C89.2564 115 115 89.2564 115 57.5C115 25.7436 89.2564 0 57.5 0C25.7436 0 0 25.7436 0 57.5C0 89.2564 25.7436 115 57.5 115Z" fill="#BAD5F9"/>
<path d="M87 87H83V79.9012C85.8338 79.3438 88 76.4625 88 73C88 69.14 85.3088 66 82 66C78.6912 66 76 69.14 76 73C76 76.4625 78.1662 79.3438 81 79.9012V83.1312L79.555 82.1675C79.3342 82.0203 79.064 81.9669 78.8038 82.0189C78.5436 82.0709 78.3147 82.2242 78.1675 82.445C78.0203 82.6658 77.9669 82.936 78.0189 83.1962C78.0709 83.4564 78.2242 83.6853 78.445 83.8325L81 85.535V87H75V32C75 31.7348 74.8946 31.4804 74.7071 31.2929C74.5196 31.1054 74.2652 31 74 31H67V28C67 27.7348 66.8946 27.4804 66.7071 27.2929C66.5196 27.1054 66.2652 27 66 27H48C47.7348 27 47.4804 27.1054 47.2929 27.2929C47.1054 27.4804 47 27.7348 47 28V31H40C39.7348 31 39.4804 31.1054 39.2929 31.2929C39.1054 31.4804 39 31.7348 39 32V87H33V79.9012C35.8337 79.3438 38 76.4625 38 73C38 69.14 35.3088 66 32 66C28.6913 66 26 69.14 26 73C26 76.4625 28.1662 79.3438 31 79.9012V83.1312L29.555 82.1675C29.4457 82.0946 29.3231 82.044 29.1942 82.0185C29.0653 81.993 28.9326 81.9931 28.8038 82.0189C28.6749 82.0447 28.5524 82.0956 28.4433 82.1687C28.3341 82.2418 28.2404 82.3357 28.1675 82.445C28.0946 82.5543 28.044 82.6769 28.0185 82.8058C27.993 82.9347 27.9931 83.0674 28.0189 83.1962C28.0447 83.3251 28.0956 83.4476 28.1687 83.5567C28.2418 83.6659 28.3357 83.7596 28.445 83.8325L31 85.535V87H27C26.7348 87 26.4804 87.1054 26.2929 87.2929C26.1054 87.4804 26 87.7348 26 88C26 88.2652 26.1054 88.5196 26.2929 88.7071C26.4804 88.8946 26.7348 89 27 89H87C87.2652 89 87.5196 88.8946 87.7071 88.7071C87.8946 88.5196 88 88.2652 88 88C88 87.7348 87.8946 87.4804 87.7071 87.2929C87.5196 87.1054 87.2652 87 87 87ZM32 72C31.7348 72 31.4804 72.1054 31.2929 72.2929C31.1054 72.4804 31 72.7348 31 73V77.8413C29.2762 77.285 28 75.325 28 73C28 70.2425 29.7938 68 32 68C34.2063 68 36 70.2425 36 73C36 75.325 34.7238 77.285 33 77.8413V73C33 72.7348 32.8946 72.4804 32.7071 72.2929C32.5196 72.1054 32.2652 72 32 72ZM49 29H65V31H49V29ZM56 87H55V79H56V87ZM59 87H58V79H59V87ZM73 87H61V78C61 77.7348 60.8946 77.4804 60.7071 77.2929C60.5196 77.1054 60.2652 77 60 77H54C53.7348 77 53.4804 77.1054 53.2929 77.2929C53.1054 77.4804 53 77.7348 53 78V87H41V39H73V87ZM73 37H41V33H73V37ZM82 72C81.7348 72 81.4804 72.1054 81.2929 72.2929C81.1054 72.4804 81 72.7348 81 73V77.8413C79.2762 77.285 78 75.325 78 73C78 70.2425 79.7938 68 82 68C84.2062 68 86 70.2425 86 73C86 75.325 84.7238 77.285 83 77.8413V73C83 72.7348 82.8946 72.4804 82.7071 72.2929C82.5196 72.1054 82.2652 72 82 72Z" fill="#2F80ED"/>
<path d="M60 67H54C53.7348 67 53.4804 67.1054 53.2929 67.2929C53.1054 67.4804 53 67.7348 53 68V74C53 74.2652 53.1054 74.5196 53.2929 74.7071C53.4804 74.8946 53.7348 75 54 75H60C60.2652 75 60.5196 74.8946 60.7071 74.7071C60.8946 74.5196 61 74.2652 61 74V68C61 67.7348 60.8946 67.4804 60.7071 67.2929C60.5196 67.1054 60.2652 67 60 67ZM59 73H55V69H59V73Z" fill="#2F80ED"/>
<path d="M50 67H44C43.7348 67 43.4804 67.1054 43.2929 67.2929C43.1054 67.4804 43 67.7348 43 68V74C43 74.2652 43.1054 74.5196 43.2929 74.7071C43.4804 74.8946 43.7348 75 44 75H50C50.2652 75 50.5196 74.8946 50.7071 74.7071C50.8946 74.5196 51 74.2652 51 74V68C51 67.7348 50.8946 67.4804 50.7071 67.2929C50.5196 67.1054 50.2652 67 50 67ZM49 73H45V69H49V73Z" fill="#2F80ED"/>
<path d="M70 67H64C63.7348 67 63.4804 67.1054 63.2929 67.2929C63.1054 67.4804 63 67.7348 63 68V74C63 74.2652 63.1054 74.5196 63.2929 74.7071C63.4804 74.8946 63.7348 75 64 75H70C70.2652 75 70.5196 74.8946 70.7071 74.7071C70.8946 74.5196 71 74.2652 71 74V68C71 67.7348 70.8946 67.4804 70.7071 67.2929C70.5196 67.1054 70.2652 67 70 67ZM69 73H65V69H69V73Z" fill="#2F80ED"/>
<path d="M50 77H44C43.7348 77 43.4804 77.1054 43.2929 77.2929C43.1054 77.4804 43 77.7348 43 78V84C43 84.2652 43.1054 84.5196 43.2929 84.7071C43.4804 84.8946 43.7348 85 44 85H50C50.2652 85 50.5196 84.8946 50.7071 84.7071C50.8946 84.5196 51 84.2652 51 84V78C51 77.7348 50.8946 77.4804 50.7071 77.2929C50.5196 77.1054 50.2652 77 50 77ZM49 83H45V79H49V83Z" fill="#2F80ED"/>
<path d="M70 77H64C63.7348 77 63.4804 77.1054 63.2929 77.2929C63.1054 77.4804 63 77.7348 63 78V84C63 84.2652 63.1054 84.5196 63.2929 84.7071C63.4804 84.8946 63.7348 85 64 85H70C70.2652 85 70.5196 84.8946 70.7071 84.7071C70.8946 84.5196 71 84.2652 71 84V78C71 77.7348 70.8946 77.4804 70.7071 77.2929C70.5196 77.1054 70.2652 77 70 77ZM69 83H65V79H69V83Z" fill="#2F80ED"/>
<path d="M60 58H54C53.7348 58 53.4804 58.1054 53.2929 58.2929C53.1054 58.4804 53 58.7348 53 59V65C53 65.2652 53.1054 65.5196 53.2929 65.7071C53.4804 65.8946 53.7348 66 54 66H60C60.2652 66 60.5196 65.8946 60.7071 65.7071C60.8946 65.5196 61 65.2652 61 65V59C61 58.7348 60.8946 58.4804 60.7071 58.2929C60.5196 58.1054 60.2652 58 60 58ZM59 64H55V60H59V64Z" fill="#2F80ED"/>
<path d="M50 58H44C43.7348 58 43.4804 58.1054 43.2929 58.2929C43.1054 58.4804 43 58.7348 43 59V65C43 65.2652 43.1054 65.5196 43.2929 65.7071C43.4804 65.8946 43.7348 66 44 66H50C50.2652 66 50.5196 65.8946 50.7071 65.7071C50.8946 65.5196 51 65.2652 51 65V59C51 58.7348 50.8946 58.4804 50.7071 58.2929C50.5196 58.1054 50.2652 58 50 58ZM49 64H45V60H49V64Z" fill="#2F80ED"/>
<path d="M70 58H64C63.7348 58 63.4804 58.1054 63.2929 58.2929C63.1054 58.4804 63 58.7348 63 59V65C63 65.2652 63.1054 65.5196 63.2929 65.7071C63.4804 65.8946 63.7348 66 64 66H70C70.2652 66 70.5196 65.8946 70.7071 65.7071C70.8946 65.5196 71 65.2652 71 65V59C71 58.7348 70.8946 58.4804 70.7071 58.2929C70.5196 58.1054 70.2652 58 70 58ZM69 64H65V60H69V64Z" fill="#2F80ED"/>
<path d="M60 49H54C53.7348 49 53.4804 49.1054 53.2929 49.2929C53.1054 49.4804 53 49.7348 53 50V56C53 56.2652 53.1054 56.5196 53.2929 56.7071C53.4804 56.8946 53.7348 57 54 57H60C60.2652 57 60.5196 56.8946 60.7071 56.7071C60.8946 56.5196 61 56.2652 61 56V50C61 49.7348 60.8946 49.4804 60.7071 49.2929C60.5196 49.1054 60.2652 49 60 49ZM59 55H55V51H59V55Z" fill="#2F80ED"/>
<path d="M50 49H44C43.7348 49 43.4804 49.1054 43.2929 49.2929C43.1054 49.4804 43 49.7348 43 50V56C43 56.2652 43.1054 56.5196 43.2929 56.7071C43.4804 56.8946 43.7348 57 44 57H50C50.2652 57 50.5196 56.8946 50.7071 56.7071C50.8946 56.5196 51 56.2652 51 56V50C51 49.7348 50.8946 49.4804 50.7071 49.2929C50.5196 49.1054 50.2652 49 50 49ZM49 55H45V51H49V55Z" fill="#2F80ED"/>
<path d="M70 49H64C63.7348 49 63.4804 49.1054 63.2929 49.2929C63.1054 49.4804 63 49.7348 63 50V56C63 56.2652 63.1054 56.5196 63.2929 56.7071C63.4804 56.8946 63.7348 57 64 57H70C70.2652 57 70.5196 56.8946 70.7071 56.7071C70.8946 56.5196 71 56.2652 71 56V50C71 49.7348 70.8946 49.4804 70.7071 49.2929C70.5196 49.1054 70.2652 49 70 49ZM69 55H65V51H69V55Z" fill="#2F80ED"/>
<path d="M60 40H54C53.7348 40 53.4804 40.1054 53.2929 40.2929C53.1054 40.4804 53 40.7348 53 41V47C53 47.2652 53.1054 47.5196 53.2929 47.7071C53.4804 47.8946 53.7348 48 54 48H60C60.2652 48 60.5196 47.8946 60.7071 47.7071C60.8946 47.5196 61 47.2652 61 47V41C61 40.7348 60.8946 40.4804 60.7071 40.2929C60.5196 40.1054 60.2652 40 60 40ZM59 46H55V42H59V46Z" fill="#2F80ED"/>
<path d="M50 40H44C43.7348 40 43.4804 40.1054 43.2929 40.2929C43.1054 40.4804 43 40.7348 43 41V47C43 47.2652 43.1054 47.5196 43.2929 47.7071C43.4804 47.8946 43.7348 48 44 48H50C50.2652 48 50.5196 47.8946 50.7071 47.7071C50.8946 47.5196 51 47.2652 51 47V41C51 40.7348 50.8946 40.4804 50.7071 40.2929C50.5196 40.1054 50.2652 40 50 40ZM49 46H45V42H49V46Z" fill="#2F80ED"/>
<path d="M70 40H64C63.7348 40 63.4804 40.1054 63.2929 40.2929C63.1054 40.4804 63 40.7348 63 41V47C63 47.2652 63.1054 47.5196 63.2929 47.7071C63.4804 47.8946 63.7348 48 64 48H70C70.2652 48 70.5196 47.8946 70.7071 47.7071C70.8946 47.5196 71 47.2652 71 47V41C71 40.7348 70.8946 40.4804 70.7071 40.2929C70.5196 40.1054 70.2652 40 70 40ZM69 46H65V42H69V46Z" fill="#2F80ED"/>
</svg>
