<svg width="381" height="48" viewBox="0 0 381 48" fill="none" xmlns="http://www.w3.org/2000/svg">
<path d="M37.7812 31.8438C37.4271 36.7396 35.6146 40.5938 32.3438 43.4062C29.0938 46.2188 24.8021 47.625 19.4688 47.625C13.6354 47.625 9.04167 45.6667 5.6875 41.75C2.35417 37.8125 0.6875 32.4167 0.6875 25.5625V22.7812C0.6875 18.4062 1.45833 14.5521 3 11.2188C4.54167 7.88542 6.73958 5.33333 9.59375 3.5625C12.4688 1.77083 15.8021 0.875 19.5938 0.875C24.8438 0.875 29.0729 2.28125 32.2812 5.09375C35.4896 7.90625 37.3438 11.8542 37.8438 16.9375H28.4688C28.2396 14 27.4167 11.875 26 10.5625C24.6042 9.22917 22.4688 8.5625 19.5938 8.5625C16.4688 8.5625 14.125 9.6875 12.5625 11.9375C11.0208 14.1667 10.2292 17.6354 10.1875 22.3438V25.7812C10.1875 30.6979 10.9271 34.2917 12.4062 36.5625C13.9062 38.8333 16.2604 39.9688 19.4688 39.9688C22.3646 39.9688 24.5208 39.3125 25.9375 38C27.375 36.6667 28.1979 34.6146 28.4062 31.8438H37.7812ZM81.3125 25.2812C81.3125 29.7604 80.5208 33.6875 78.9375 37.0625C77.3542 40.4375 75.0833 43.0417 72.125 44.875C69.1875 46.7083 65.8125 47.625 62 47.625C58.2292 47.625 54.8646 46.7188 51.9062 44.9062C48.9479 43.0938 46.6562 40.5104 45.0312 37.1562C43.4062 33.7812 42.5833 29.9062 42.5625 25.5312V23.2812C42.5625 18.8021 43.3646 14.8646 44.9688 11.4688C46.5938 8.05208 48.875 5.4375 51.8125 3.625C54.7708 1.79167 58.1458 0.875 61.9375 0.875C65.7292 0.875 69.0938 1.79167 72.0312 3.625C74.9896 5.4375 77.2708 8.05208 78.875 11.4688C80.5 14.8646 81.3125 18.7917 81.3125 23.25V25.2812ZM71.8125 23.2188C71.8125 18.4479 70.9583 14.8229 69.25 12.3438C67.5417 9.86458 65.1042 8.625 61.9375 8.625C58.7917 8.625 56.3646 9.85417 54.6562 12.3125C52.9479 14.75 52.0833 18.3333 52.0625 23.0625V25.2812C52.0625 29.9271 52.9167 33.5312 54.625 36.0938C56.3333 38.6562 58.7917 39.9375 62 39.9375C65.1458 39.9375 67.5625 38.7083 69.25 36.25C70.9375 33.7708 71.7917 30.1667 71.8125 25.4375V23.2188ZM125.125 47H115.75L97.5 17.0625V47H88.125V1.5H97.5L115.781 31.5V1.5H125.125V47ZM166.625 9.09375H152.688V47H143.312V9.09375H129.562V1.5H166.625V9.09375ZM193.938 37.625H177.5L174.375 47H164.406L181.344 1.5H190.031L207.062 47H197.094L193.938 37.625ZM180.031 30.0312H191.406L185.688 13L180.031 30.0312ZM246.344 31.8438C245.99 36.7396 244.177 40.5938 240.906 43.4062C237.656 46.2188 233.365 47.625 228.031 47.625C222.198 47.625 217.604 45.6667 214.25 41.75C210.917 37.8125 209.25 32.4167 209.25 25.5625V22.7812C209.25 18.4062 210.021 14.5521 211.562 11.2188C213.104 7.88542 215.302 5.33333 218.156 3.5625C221.031 1.77083 224.365 0.875 228.156 0.875C233.406 0.875 237.635 2.28125 240.844 5.09375C244.052 7.90625 245.906 11.8542 246.406 16.9375H237.031C236.802 14 235.979 11.875 234.562 10.5625C233.167 9.22917 231.031 8.5625 228.156 8.5625C225.031 8.5625 222.688 9.6875 221.125 11.9375C219.583 14.1667 218.792 17.6354 218.75 22.3438V25.7812C218.75 30.6979 219.49 34.2917 220.969 36.5625C222.469 38.8333 224.823 39.9688 228.031 39.9688C230.927 39.9688 233.083 39.3125 234.5 38C235.938 36.6667 236.76 34.6146 236.969 31.8438H246.344ZM285.812 9.09375H271.875V47H262.5V9.09375H248.75V1.5H285.812V9.09375Z" fill="white"/>
<path d="M339.688 1.5V31.4688C339.688 36.4479 338.125 40.3854 335 43.2812C331.896 46.1771 327.646 47.625 322.25 47.625C316.938 47.625 312.719 46.2188 309.594 43.4062C306.469 40.5938 304.875 36.7292 304.812 31.8125V1.5H314.188V31.5312C314.188 34.5104 314.896 36.6875 316.312 38.0625C317.75 39.4167 319.729 40.0938 322.25 40.0938C327.521 40.0938 330.198 37.3229 330.281 31.7812V1.5H339.688ZM370.969 35.0625C370.969 33.2917 370.344 31.9375 369.094 31C367.844 30.0417 365.594 29.0417 362.344 28C359.094 26.9375 356.521 25.8958 354.625 24.875C349.458 22.0833 346.875 18.3229 346.875 13.5938C346.875 11.1354 347.562 8.94792 348.938 7.03125C350.333 5.09375 352.323 3.58333 354.906 2.5C357.51 1.41667 360.427 0.875 363.656 0.875C366.906 0.875 369.802 1.46875 372.344 2.65625C374.885 3.82292 376.854 5.47917 378.25 7.625C379.667 9.77083 380.375 12.2083 380.375 14.9375H371C371 12.8542 370.344 11.2396 369.031 10.0938C367.719 8.92708 365.875 8.34375 363.5 8.34375C361.208 8.34375 359.427 8.83333 358.156 9.8125C356.885 10.7708 356.25 12.0417 356.25 13.625C356.25 15.1042 356.99 16.3438 358.469 17.3438C359.969 18.3438 362.167 19.2812 365.062 20.1562C370.396 21.7604 374.281 23.75 376.719 26.125C379.156 28.5 380.375 31.4583 380.375 35C380.375 38.9375 378.885 42.0312 375.906 44.2812C372.927 46.5104 368.917 47.625 363.875 47.625C360.375 47.625 357.188 46.9896 354.312 45.7188C351.438 44.4271 349.24 42.6667 347.719 40.4375C346.219 38.2083 345.469 35.625 345.469 32.6875H354.875C354.875 37.7083 357.875 40.2188 363.875 40.2188C366.104 40.2188 367.844 39.7708 369.094 38.875C370.344 37.9583 370.969 36.6875 370.969 35.0625Z" fill="#FF647C"/>
</svg>
