<svg width="85" height="28" viewBox="0 0 85 28" fill="none" xmlns="http://www.w3.org/2000/svg">
<path fill-rule="evenodd" clip-rule="evenodd" d="M59.329 23.1661H57.186C56.958 23.1661 56.73 22.9381 56.73 22.6645V19.9739C56.73 19.7459 56.958 19.5179 57.186 19.5179H59.329C59.603 19.5179 59.831 19.7459 59.831 19.9739V22.6645C59.831 22.9381 59.603 23.1661 59.329 23.1661ZM10.625 23.1661H8.43597C8.16297 23.1661 7.935 22.8925 7.935 22.6645V14.8208C7.935 12.7687 7.57 12.2215 5.974 12.2215C5.153 12.2215 4.19502 12.4951 3.19202 13.0423V22.6645C3.19202 22.8925 2.96398 23.1661 2.69098 23.1661H0.502014C0.228014 23.1661 0 22.8925 0 22.6645V0.456026C0 0.228013 0.228014 0 0.502014 0H2.69098C2.96398 0 3.19202 0.228013 3.19202 0.456026V10.443C4.10402 9.89577 5.10698 9.57655 6.79498 9.57655C10.124 9.57655 11.127 11.9023 11.127 14.8208V22.6645C11.127 22.8925 10.899 23.1661 10.625 23.1661ZM19.792 15.5049C19.792 13.544 18.925 12.2671 17.238 12.2671C15.55 12.2671 14.638 13.544 14.638 15.5049V17.4202C14.638 19.3811 15.55 20.6124 17.238 20.6124C18.925 20.6124 19.792 19.3811 19.792 17.4202V15.5049ZM17.238 23.3485C13.453 23.3485 11.492 20.8404 11.492 17.4202V15.5049C11.492 12.0847 13.453 9.57655 17.238 9.57655C20.977 9.57655 22.984 12.0847 22.984 15.5049V17.4202C22.984 20.8404 20.977 23.3485 17.238 23.3485ZM30.052 23.1661C29.459 23.2573 28.958 23.3485 28.41 23.3485C25.674 23.3485 24.58 22.7557 24.58 19.5635V12.0847L22.345 11.7655C22.072 11.7199 21.844 11.5375 21.844 11.2638V10.215C21.844 9.94137 22.072 9.71336 22.345 9.71336H24.58V7.75244C24.58 7.52443 24.808 7.34202 25.081 7.29642L27.316 6.9316H27.407C27.635 6.9316 27.772 7.0228 27.772 7.25081V9.71336H29.961C30.189 9.71336 30.417 9.94137 30.417 10.215V11.5831C30.417 11.8567 30.189 12.0847 29.961 12.0847H27.772V19.5635C27.772 20.7492 27.863 20.886 28.73 20.886H30.007C30.326 20.886 30.508 21.0228 30.508 21.2508V22.7557C30.508 22.9837 30.371 23.1205 30.052 23.1661ZM38.945 15.1857C38.945 13.3616 37.941 12.2671 36.436 12.2671C34.932 12.2671 33.883 13.316 33.883 15.1857V15.2769H38.945V15.1857ZM41.681 17.5114H33.837V17.6026C33.837 18.9707 34.43 20.6124 36.71 20.6124C38.489 20.6124 40.13 20.4756 41.134 20.3844H41.225C41.453 20.3844 41.635 20.5212 41.635 20.7492V22.2997C41.635 22.7101 41.59 22.8469 41.134 22.9381C39.583 23.2117 38.671 23.3485 36.482 23.3485C34.065 23.3485 30.691 22.0717 30.691 17.3746V15.5961C30.691 11.9023 32.743 9.57655 36.436 9.57655C40.13 9.57655 42.182 12.0391 42.182 15.5961V16.9186C42.182 17.329 42 17.5114 41.681 17.5114ZM45.557 27.9088H43.322C43.049 27.9088 42.821 27.6352 42.821 27.4072V5.51792C42.821 5.2443 43.049 5.01629 43.322 5.01629H45.557C45.831 5.01629 46.013 5.2443 46.013 5.51792V27.4072C46.013 27.6352 45.831 27.9088 45.557 27.9088ZM51.303 23.3485C50.391 23.3485 48.339 23.2117 47.016 22.8469C46.697 22.8013 46.56 22.6189 46.56 22.2997V20.886C46.56 20.7036 46.697 20.5212 46.971 20.5212H47.062C48.202 20.658 50.391 20.7492 51.075 20.7492C52.58 20.7492 52.808 20.2932 52.808 19.6091C52.808 19.1987 52.534 18.8795 51.759 18.4235L48.43 16.4169C47.842 16.0882 47.348 15.6134 46.996 15.0382C46.645 14.4631 46.448 13.8071 46.423 13.1336C46.423 10.7622 47.928 9.57655 50.984 9.57655C52.945 9.57655 54.039 9.75896 55.27 10.0326C55.59 10.1238 55.726 10.3062 55.726 10.5798V11.9479C55.726 12.2671 55.59 12.4039 55.316 12.4039H55.225C54.541 12.3127 52.625 12.1303 51.257 12.1303C50.117 12.1303 49.616 12.4039 49.616 13.1336C49.616 13.4984 49.98 13.7264 50.573 14.0912L53.72 16.0065C55.726 17.2378 56.046 18.4235 56.046 19.6091C56.046 21.7068 54.45 23.3485 51.303 23.3485ZM71.277 23.1661H69.088C68.814 23.1661 68.586 22.8925 68.586 22.6645V14.9121C68.586 12.8143 68.404 12.2215 66.534 12.2215C65.713 12.2215 64.847 12.5407 63.844 13.0879V22.6645C63.844 22.8925 63.616 23.1661 63.342 23.1661H61.153C60.879 23.1661 60.651 22.8925 60.651 22.6645V10.215C60.651 9.94137 60.879 9.71336 61.153 9.71336H63.251C63.479 9.71336 63.707 9.94137 63.707 10.215V10.7166C65.121 9.80456 66.033 9.57655 67.629 9.57655C71.094 9.57655 71.779 11.8567 71.779 14.9121V22.6645C71.779 22.8925 71.55 23.1661 71.277 23.1661ZM81.036 14.1368C81.036 12.9967 80.534 12.1303 78.482 12.1303C76.43 12.1303 75.883 13.0423 75.883 14.1368V14.3648C75.883 15.2313 76.202 16.2345 78.482 16.2345C80.443 16.2345 81.036 15.5505 81.036 14.3648V14.1368ZM81.309 24.0782C81.309 23.5765 80.99 23.2573 78.482 22.6645L76.339 22.1629C75.974 22.6645 75.7 22.9837 75.7 23.8046V24.0326C75.7 24.9902 76.339 25.5831 78.573 25.5831C80.899 25.5831 81.309 25.127 81.309 24.2606V24.0782ZM84.365 11.9023L83.544 12.2215C83.954 12.7687 84.137 13.2704 84.137 14.0912V14.2736C84.137 17.2378 82.085 18.6059 78.482 18.6059C77.205 18.6059 76.339 18.3778 75.837 18.1954C75.564 18.3778 75.427 18.6059 75.427 18.8339C75.427 19.2899 75.7 19.4723 76.248 19.6091L79.075 20.2932C82.358 21.0228 84.456 21.5244 84.456 24.0782V24.2606C84.456 26.6775 82.678 28 78.573 28C74.697 28 72.599 26.5407 72.599 24.0326V23.8046C72.599 22.8469 73.055 21.8892 73.831 21.2052C73.499 20.9456 73.232 20.6131 73.05 20.2334C72.868 19.8538 72.776 19.4372 72.782 19.0163V18.9707C72.782 18.241 73.055 17.5114 73.739 17.0554C73.01 16.3257 72.736 15.4593 72.736 14.2736V14.0912C72.736 11.7199 74.287 9.71336 78.482 9.71336H84.091C84.456 9.71336 84.73 10.0326 84.73 10.3518V11.355C84.73 11.7199 84.638 11.7655 84.365 11.9023Z" fill="#999999"/>
</svg>
