<svg width="157" height="20" viewBox="0 0 157 20" fill="none" xmlns="http://www.w3.org/2000/svg">
<path fill-rule="evenodd" clip-rule="evenodd" d="M109.589 0.29056H112.807V16.779H126.76L124.711 20H109.589V0.29056ZM84.318 20L72.414 1.21747C71.683 -0.00177979 69.732 -0.00178003 68.902 1.26649L57.096 20H60.999L64.561 14.3405H72.171L74.172 11.1203H66.561L70.709 4.6328L80.417 20H84.318ZM91.561 0.29679C86.123 0.29679 82.543 4.70588 82.543 10.1453C82.543 15.5838 86.124 19.9947 91.561 19.9947L104.786 19.9786L106.856 16.7861H91.659C87.993 16.7861 85.848 13.8128 85.848 10.1453C85.848 6.4777 87.992 3.50446 91.659 3.50446H105.196L107.194 0.28699L91.561 0.29679ZM9.02002 3.50446H22.971C26.639 3.50446 28.783 6.4777 28.783 10.1453C28.783 13.8128 26.64 16.7861 22.971 16.7861H9.02002C5.35202 16.7861 3.20898 13.8128 3.20898 10.1453C3.20898 6.4777 5.35202 3.50446 9.02002 3.50446ZM9.02002 0.29679C3.58002 0.29679 0 4.70588 0 10.1453C0 15.5838 3.58002 19.9947 9.02002 19.9947H22.971C28.411 19.9947 31.991 15.5838 31.991 10.1453C31.991 4.70588 28.411 0.29679 22.971 0.29679H9.02002ZM130.2 11.7068C130.724 14.6212 132.729 16.7861 135.859 16.7861H151.056L148.985 19.9786L135.762 19.9947C130.322 19.9947 126.743 15.5838 126.743 10.1453C126.743 4.70588 130.323 0.29679 135.762 0.29679L151.394 0.28788L149.397 3.50535H135.86C132.774 3.50535 130.759 5.63369 130.201 8.4875H149.3L147.251 11.7077H130.2V11.7068ZM50.193 11.992C51.727 11.9652 53.188 11.3374 54.263 10.2436C55.338 9.1499 55.94 7.6778 55.94 6.1444C55.94 4.61096 55.338 3.13886 54.263 2.04514C53.188 0.95142 51.727 0.32356 50.193 0.29679L33.777 0.28967V19.9991H37.388V3.50535H50.193C50.893 3.50535 51.565 3.78339 52.059 4.27831C52.554 4.77322 52.832 5.44447 52.832 6.1444C52.832 6.8443 52.554 7.5156 52.059 8.0105C51.565 8.5054 50.893 8.7834 50.193 8.7834H39.924L51.509 19.9768H56.169L47.876 11.9991L50.193 11.992ZM154.766 0.30838C155.603 0.30838 156.266 0.9697 156.266 1.84671C156.266 2.73797 155.604 3.39394 154.766 3.39394C153.919 3.39394 153.259 2.73797 153.259 1.84671C153.259 0.9697 153.919 0.30838 154.766 0.30838V0C153.748 0 152.887 0.78342 152.887 1.84581C152.887 2.91889 153.749 3.70232 154.766 3.70232C155.776 3.70232 156.638 2.91889 156.638 1.84581C156.638 0.78342 155.776 0 154.766 0V0.30838Z" fill="#999999"/>
</svg>
