<svg width="150" height="28" viewBox="0 0 150 28" fill="none" xmlns="http://www.w3.org/2000/svg">
<path d="M19.058 11.9016C22.663 8.95619 30.027 -1.65756 18.499 0.221424C13.471 0.983177 6.10799 5.85839 4.63499 11.4954C3.87299 9.97186 3.00999 8.54992 2.09599 7.12798C0.673992 5.19821 -0.899999 6.72171 0.623001 8.65149C5.139 14.1194 7.74299 20.9143 8.03799 28C8.39299 24.5975 7.834 20.4333 6.463 16.3706C7.123 16.5737 7.885 16.6753 8.545 16.6753C10.881 20.5348 14.487 23.8358 18.499 25.3593C22.206 26.832 27.132 25.9687 25.101 20.027C24.034 16.7768 21.546 13.933 19.058 11.9016ZM19.565 1.59258C25.964 0.88161 19.108 8.85462 16.874 10.3273C14.792 8.95619 12.151 7.73738 9.612 8.09287C11.44 5.70604 15.909 2.04963 19.565 1.59258ZM9.561 9.81951C11.288 9.66716 13.167 10.632 14.639 11.6477C13.217 12.3587 11.694 12.7649 10.12 12.9173C7.78399 12.9173 7.276 10.0226 9.561 9.81951ZM18.397 22.2107C15.401 21.3474 12.557 18.9098 10.526 16.4721C12.202 16.1167 13.878 15.4565 15.401 14.5424C15.96 14.2885 16.518 13.8822 17.026 13.5267C18.804 15.1518 20.683 17.3355 21.394 19.8239C22.105 22.5154 20.175 22.7185 18.397 22.2107Z" fill="#999999"/>
<path d="M43.586 5.19827H34.851C34.547 5.19827 34.293 5.45219 34.293 5.75689H34.242V19.4684C34.242 19.7731 34.496 20.0271 34.8 20.0271C35.054 20.0271 35.308 19.7731 35.359 19.4684V13.2729H42.773C43.078 13.2729 43.231 13.0189 43.231 12.765C43.231 12.4603 43.027 12.308 42.773 12.308H35.308V6.26473H43.586C43.891 6.26473 44.043 6.01081 44.043 5.75689C44.043 5.60454 43.891 5.40141 43.586 5.19827ZM47.598 4.4873H47.547C47.293 4.4873 47.141 4.69044 47.141 4.94436V19.4177C47.141 19.7224 47.344 19.9255 47.598 19.9255C47.903 19.9255 48.055 19.6716 48.055 19.4177V5.04592C48.055 4.69044 47.903 4.4873 47.598 4.4873ZM60.243 9.66722C60.243 9.36252 60.04 9.1594 59.786 9.1594C59.481 9.1594 59.329 9.4133 59.329 9.66722V15.7105C59.329 17.7418 57.755 19.3669 55.825 19.3161C53.793 19.3161 52.625 17.8941 52.625 15.6597V9.66722C52.625 9.36252 52.422 9.1594 52.168 9.1594C51.965 9.1594 51.711 9.4133 51.711 9.66722V15.812C51.711 18.3512 53.235 20.2302 55.723 20.2302C57.247 20.281 58.669 19.4177 59.38 17.9957V19.57C59.38 19.8747 59.634 20.0271 59.837 20.0271C60.141 20.0271 60.294 19.7731 60.294 19.57H60.243V9.66722ZM68.622 10.1751C68.825 10.1751 69.079 9.97192 69.079 9.71801C69.079 9.51487 68.825 9.26095 68.622 9.26095H65.423V6.26473C65.423 6.01081 65.169 5.75689 64.966 5.75689H64.915C64.661 5.75689 64.509 6.01081 64.509 6.26473V9.26095H63.392C63.138 9.26095 62.935 9.4133 62.935 9.66722C62.935 9.92114 63.138 10.1751 63.392 10.1751H64.509V17.1832C64.509 19.1637 65.778 20.1286 67.251 20.1286C67.759 20.1286 68.267 20.0271 68.724 19.8747C68.876 19.7731 69.029 19.6208 69.029 19.4177C69.029 19.1637 68.825 19.0114 68.622 19.0114C68.267 19.113 67.861 19.1637 67.454 19.1637C66.235 19.1637 65.423 18.6051 65.423 17.0816V10.1751H68.622ZM76.494 10.1751C76.748 10.1751 76.951 9.97192 76.951 9.71801C76.951 9.51487 76.748 9.26095 76.494 9.26095H73.294V6.26473C73.294 6.01081 73.091 5.75689 72.837 5.75689H72.787C72.533 5.75689 72.38 6.01081 72.38 6.26473V9.26095H71.263C71.06 9.26095 70.806 9.4133 70.806 9.66722C70.806 9.92114 71.06 10.1751 71.263 10.1751H72.38V17.1832C72.38 19.1637 73.65 20.1286 75.173 20.1286C75.63 20.1286 76.138 20.0271 76.595 19.8747C76.798 19.7731 76.9 19.6208 76.9 19.4177C76.9 19.1637 76.748 19.0114 76.494 19.0114C76.138 19.113 75.732 19.1637 75.326 19.1637C74.107 19.1637 73.294 18.6051 73.294 17.0816V10.1751H76.494ZM83.451 8.95625C80.76 8.95625 78.728 11.3939 78.728 14.5932V14.644C78.728 18.0465 80.963 20.281 83.654 20.281C85.076 20.3318 86.549 19.7224 87.514 18.5543C87.666 18.4528 87.717 18.3004 87.717 18.1989C87.717 17.9449 87.463 17.691 87.26 17.691L86.955 17.7926C86.552 18.2623 86.054 18.641 85.494 18.9037C84.933 19.1663 84.324 19.3069 83.705 19.3161C81.724 19.3161 79.947 17.7418 79.744 15.1011H87.666C87.869 15.1011 88.123 14.8471 88.123 14.5932C88.123 11.3939 86.295 8.95625 83.451 8.95625ZM79.693 14.0854C79.845 11.7493 81.42 9.92114 83.4 9.92114C85.686 9.92114 86.904 11.9017 87.006 14.0854H79.693ZM95.893 9.1086C94.065 9.26095 92.541 10.5305 91.881 12.3587V9.71801C91.881 9.51487 91.627 9.26095 91.424 9.26095C91.119 9.26095 90.967 9.4133 90.916 9.71801V19.6716C90.916 19.9255 91.119 20.1794 91.373 20.1794C91.627 20.1794 91.83 19.9763 91.881 19.6716V15.7105C91.881 12.2064 93.76 10.5305 95.893 10.2766H95.944C96.248 10.2766 96.401 9.97192 96.401 9.71801C96.401 9.36252 96.198 9.1086 95.893 9.1086Z" fill="#999999"/>
<path d="M113.007 8.55001C112.347 8.55001 111.738 9.05784 111.585 9.76881L109.859 15.5581L108.183 9.76881C108.03 9.05784 107.37 8.49922 106.608 8.49922H106.456C105.694 8.49922 105.034 8.95628 104.882 9.76881L103.206 15.4566L101.581 9.71803C101.378 9.05784 100.819 8.49922 100.108 8.49922H100.057C99.296 8.49922 98.737 9.15941 98.737 9.97195L98.839 10.7337L101.428 18.7067C101.632 19.5192 102.292 20.0779 103.104 20.1286H103.206C103.968 20.1286 104.577 19.57 104.831 18.7575L106.507 13.0697L108.183 18.7575C108.386 19.57 109.046 20.1286 109.808 20.1286H109.96C110.773 20.1286 111.433 19.57 111.636 18.7067L114.226 10.6321L114.378 10.0227V9.97195C114.378 9.15941 113.769 8.55001 113.007 8.55001ZM120.472 8.55001C119.304 8.49922 118.187 8.75314 117.07 9.10863C116.613 9.31176 116.359 9.76881 116.359 10.3274C116.359 11.0892 116.917 11.6478 117.628 11.597C117.73 11.597 117.882 11.597 118.035 11.4955C118.695 11.2923 119.406 11.1907 120.117 11.1907C121.64 11.1907 122.402 11.9017 122.402 13.2729V13.4252C121.59 13.1205 120.675 13.019 119.812 13.019C117.324 13.019 115.597 14.187 115.597 16.6754C115.597 18.8591 117.273 20.1286 119.203 20.1286C120.421 20.1794 121.59 19.6208 122.402 18.7067C122.453 19.5192 123.062 20.0779 123.824 20.0779C124.637 20.0779 125.297 19.3669 125.297 18.5036V13.4252C125.347 12.1556 124.941 10.8353 124.129 9.87038C123.265 9.05784 122.097 8.55001 120.472 8.55001ZM122.453 15.9136C122.453 17.1324 121.437 17.8942 120.066 17.8434C119.101 17.8434 118.441 17.3356 118.441 16.4722V16.4215C118.441 15.4566 119.253 14.8472 120.523 14.8472C121.132 14.8472 121.843 15.0503 122.453 15.3042V15.9136ZM135.606 8.49922C134.996 8.49922 134.387 8.90549 134.235 9.61646L131.899 16.1675L129.664 9.66724C129.461 8.95628 128.902 8.49922 128.191 8.49922C127.43 8.49922 126.82 9.10863 126.719 9.97195C126.719 10.2259 126.82 10.4798 126.922 10.7337L130.172 18.7067C130.375 19.5192 131.035 20.0779 131.848 20.1286H132.051C132.762 20.0779 133.473 19.57 133.778 18.7575L136.926 10.7845L137.078 10.0227V9.97195C137.078 9.15941 136.469 8.49922 135.606 8.49922ZM143.477 8.44844C140.379 8.44844 138.247 11.0892 138.247 14.2885V14.7964C138.348 17.8942 140.887 20.281 143.782 20.1286C145.102 20.1286 146.372 19.6716 147.438 18.7575C147.743 18.5036 147.845 18.1989 147.845 17.8434V17.7926C147.845 17.0816 147.337 16.523 146.677 16.523C146.423 16.523 146.169 16.5738 145.966 16.7769C145.374 17.2866 144.614 17.5581 143.833 17.5387C142.563 17.5895 141.446 16.6754 141.294 15.3042H147.235C147.997 15.2534 148.606 14.5425 148.556 13.7299V13.476C148.556 10.7337 146.27 8.34687 143.477 8.44844ZM141.192 13.4252C141.446 11.9525 142.258 11.0384 143.477 11.0384C144.696 11.0384 145.509 12.0033 145.661 13.4252H141.192Z" fill="#999999" stroke="#999999"/>
</svg>
