<svg width="148" height="28" viewBox="0 0 148 28" fill="none" xmlns="http://www.w3.org/2000/svg">
<path d="M39.444 22.7071V28.0003H36.124V10.769H39.444V11.5934C40.433 10.9505 41.585 10.6037 42.764 10.5938C46.534 10.5938 49.305 13.5907 49.305 17.1613C49.305 20.7319 46.559 23.7289 42.764 23.7289C41.579 23.7308 40.422 23.3747 39.444 22.7071ZM39.444 15.59V18.6367C39.706 19.1943 40.113 19.6712 40.622 20.0176C41.132 20.3639 41.725 20.5669 42.34 20.6053C42.955 20.6437 43.568 20.5161 44.117 20.2359C44.666 19.9557 45.129 19.5331 45.458 19.0125C45.787 18.4918 45.97 17.8923 45.988 17.2765C46.006 16.6608 45.859 16.0515 45.56 15.5125C45.262 14.9735 44.824 14.5246 44.293 14.2128C43.762 13.901 43.157 13.7377 42.541 13.7401C41.904 13.7311 41.277 13.8994 40.73 14.226C40.183 14.5527 39.738 15.0249 39.444 15.59Z" fill="#999999"/>
<path d="M51.104 7.29596C51.093 7.04467 51.134 6.79382 51.223 6.55882C51.313 6.32383 51.45 6.10966 51.625 5.92949C51.801 5.74932 52.011 5.60695 52.244 5.51114C52.476 5.41533 52.726 5.3681 52.978 5.37236C53.233 5.36793 53.486 5.41449 53.723 5.50929C53.959 5.60409 54.175 5.74523 54.356 5.92442C54.537 6.10361 54.681 6.31724 54.779 6.55277C54.877 6.78829 54.926 7.04097 54.925 7.29596C54.92 7.8088 54.712 8.29879 54.347 8.65936C53.983 9.01993 53.49 9.22193 52.978 9.22142C52.727 9.22025 52.48 9.16928 52.25 9.07146C52.02 8.97364 51.811 8.83094 51.637 8.65169C51.462 8.47244 51.3251 8.26024 51.2341 8.02746C51.1421 7.79469 51.098 7.54602 51.104 7.29596ZM51.305 10.7688H54.676V23.5295H51.305V10.7688Z" fill="#999999"/>
<path d="M56.672 17.1127C56.665 16.2539 56.83 15.4023 57.157 14.6081C57.484 13.814 57.967 13.0932 58.576 12.4882C59.186 11.8832 59.91 11.4062 60.707 11.0852C61.504 10.7641 62.356 10.6056 63.215 10.6189C64.389 10.6195 65.545 10.911 66.579 11.4673V10.7683H69.877V22.8042C69.877 26.124 67.003 27.924 63.409 27.924C61.061 27.924 58.813 27.225 57.339 26.0797L58.713 23.7079C60.114 24.6051 61.746 25.0737 63.409 25.0561C65.731 25.0561 66.456 24.134 66.555 22.6346C65.555 23.2743 64.395 23.6201 63.208 23.6323C59.386 23.6286 56.672 20.7829 56.672 17.1127ZM66.579 18.5347V15.6889C66.3 15.0951 65.859 14.5924 65.307 14.2386C64.754 13.8849 64.113 13.6946 63.457 13.6897C63.004 13.6853 62.554 13.7705 62.134 13.9404C61.714 14.1103 61.332 14.3615 61.01 14.6796C60.687 14.9977 60.431 15.3764 60.255 15.794C60.079 16.2115 59.988 16.6597 59.986 17.1127C59.986 19.0843 61.483 20.4583 63.433 20.4583C64.087 20.4753 64.732 20.3028 65.29 19.9615C65.849 19.6202 66.296 19.1247 66.579 18.5347Z" fill="#999999"/>
<path d="M71.878 17.1127C71.871 16.2539 72.036 15.4023 72.363 14.6081C72.69 13.814 73.173 13.0932 73.782 12.4882C74.392 11.8832 75.116 11.4062 75.913 11.0852C76.71 10.7641 77.563 10.6056 78.421 10.6189C79.598 10.6185 80.756 10.91 81.793 11.4673V10.7683H85.088V22.8042C85.088 26.124 82.217 27.924 78.622 27.924C76.275 27.924 74.026 27.225 72.553 26.0797L73.927 23.7079C75.327 24.6054 76.959 25.074 78.622 25.0561C80.944 25.0561 81.669 24.134 81.769 22.6346C80.768 23.2741 79.609 23.6198 78.421 23.6323C74.6 23.6286 71.878 20.7829 71.878 17.1127ZM81.793 18.5347V15.6889C81.514 15.0953 81.072 14.5926 80.52 14.2389C79.967 13.8852 79.326 13.6948 78.67 13.6897C78.217 13.6853 77.768 13.7705 77.348 13.9404C76.928 14.1103 76.546 14.3615 76.223 14.6796C75.901 14.9977 75.644 15.3764 75.468 15.794C75.293 16.2115 75.201 16.6597 75.199 17.1127C75.199 19.0843 76.697 20.4583 78.646 20.4583C79.3 20.4751 79.945 20.3025 80.504 19.9612C81.062 19.6199 81.51 19.1245 81.793 18.5347Z" fill="#999999"/>
<path d="M89.932 10.7686L93.279 19.2837L96.724 10.7686H100.229L92.879 27.9999H89.758L91.603 23.4057L86.238 10.7686H89.932Z" fill="#999999"/>
<path d="M99.592 10.7686H103.163L106.416 19.3851L109.638 10.7686H113.142L108.022 23.5293H104.664L99.592 10.7686Z" fill="#999999"/>
<path d="M113.378 17.0617C113.378 13.4672 115.949 10.4941 119.97 10.4941C123.692 10.4941 126.519 13.2919 126.587 16.9676C126.613 17.2837 126.613 17.6014 126.587 17.9175H116.525C116.624 19.7156 118.347 20.8886 120.195 20.8886C121.718 20.8886 122.617 20.4644 123.666 19.5976L125.49 21.5212C124.014 23.0686 122.539 23.7934 120.195 23.7934C115.876 23.7805 113.378 20.5585 113.378 17.0617ZM116.698 15.5383H123.142C122.818 14.3414 121.667 13.2919 119.92 13.2919C117.897 13.2919 117.049 14.3155 116.698 15.5383Z" fill="#999999"/>
<path d="M127.284 22.1566L128.917 19.5082C130.381 20.4846 132.099 21.0139 133.859 21.0315C135.534 21.0315 136.382 20.6074 136.382 19.8844C136.382 19.4086 135.982 19.06 135.134 18.8848L131.629 18.136C129.059 17.5827 127.884 16.3636 127.884 14.3662C127.884 12.2435 129.682 10.4692 133.404 10.4692C135.65 10.4692 137.646 11.1203 139.021 11.9687L137.498 14.5156C136.375 13.9162 134.877 13.267 133.302 13.267C131.88 13.267 131.056 13.6175 131.056 14.2648C131.056 14.6908 131.357 14.9656 132.179 15.115L135.13 15.6683C138.326 16.2917 139.556 17.7155 139.556 19.6391C139.556 22.4056 136.79 23.8589 133.761 23.8589C131.486 23.9028 129.244 23.3135 127.284 22.1566Z" fill="#999999"/>
<path d="M140.22 10.7681H142.118V7.24735L145.438 5.10059V10.7681H147.385V13.6655H145.44V23.5307H142.12V13.6655H140.219V10.7681H140.22Z" fill="#999999"/>
<path d="M27.812 12.8213C27.757 12.0113 27.624 11.2084 27.416 10.4237C26.466 6.91951 24.465 4.16228 21.414 2.19441C19.493 0.94481 17.286 0.203015 15 0.0384261C14.039 -0.0317259 13.074 -0.00577699 12.119 0.115887C11.113 0.249092 10.123 0.489606 9.168 0.83332C6.624 1.75085 4.40401 3.39186 2.78101 5.55448C1.15801 7.7171 0.202006 10.307 0.0310059 13.0057C5.85988e-06 13.5018 0 14.0016 0 14.4996V26.6056C0 26.9201 0.124985 27.2217 0.346985 27.4441C0.569985 27.6665 0.871005 27.7915 1.186 27.7915H5.86301C6.15601 27.7897 6.438 27.6805 6.655 27.4847C6.873 27.2889 7.011 27.02 7.043 26.7291C7.074 26.6155 7.09 26.4983 7.091 26.3806V26.1002C7.089 26.0788 7.089 26.0571 7.091 26.0357V26.0043C7.123 26.0128 7.15299 26.0272 7.17999 26.0468C8.92899 27.0142 10.867 27.5929 12.86 27.7435C13.659 27.8026 14.461 27.7945 15.258 27.7195C17.134 27.5467 18.956 26.9915 20.609 26.0882C22.263 25.1849 23.715 23.9525 24.874 22.467C26.527 20.388 27.538 17.8725 27.784 15.2281C27.868 14.4284 27.877 13.6227 27.812 12.8213ZM16.414 20.5563C16.406 20.5989 16.383 20.6372 16.349 20.6646C16.316 20.6919 16.273 20.7064 16.23 20.7057H11.619C11.576 20.7064 11.533 20.6919 11.5 20.6646C11.466 20.6372 11.443 20.5989 11.435 20.5563V20.5268V20.3552C11.434 20.1436 11.457 19.9326 11.505 19.7263C11.534 19.6563 11.553 19.5733 11.582 19.4958C11.612 19.4183 11.641 19.3464 11.671 19.2708C11.7 19.1952 11.748 19.1269 11.789 19.0624L11.855 18.9628C11.899 18.8983 11.946 18.8367 11.997 18.7784C12.051 18.712 12.104 18.6548 12.158 18.5939C12.435 18.321 12.772 18.1165 13.142 17.9964C12.824 17.8227 12.572 17.5479 12.426 17.2152C12.28 16.8826 12.25 16.5109 12.339 16.1589C12.428 15.8068 12.631 15.4944 12.917 15.2708C13.203 15.0471 13.556 14.9251 13.919 14.9238C14.352 14.9271 14.768 15.0998 15.075 15.4051C15.254 15.5845 15.388 15.8027 15.467 16.0426C15.547 16.2826 15.57 16.5377 15.534 16.788C15.498 17.0383 15.405 17.2768 15.261 17.4849C15.118 17.693 14.928 17.8649 14.706 17.9872C15.204 18.1513 15.638 18.4688 15.945 18.8941C16.251 19.3194 16.416 19.8309 16.414 20.3552C16.414 20.4216 16.414 20.4936 16.414 20.5563ZM24.363 10.5122H3.49301C3.45401 10.5119 3.41501 10.5024 3.38101 10.4843C3.34601 10.4663 3.316 10.4403 3.293 10.4084C3.271 10.3765 3.256 10.3397 3.25 10.301C3.245 10.2623 3.24799 10.2228 3.26099 10.1858C4.03899 7.97888 5.48401 6.06786 7.39401 4.71613C9.30401 3.36439 11.587 2.6385 13.927 2.6385C16.267 2.6385 18.55 3.36439 20.461 4.71613C22.371 6.06786 23.815 7.97888 24.594 10.1858C24.606 10.2227 24.61 10.262 24.604 10.3006C24.599 10.3391 24.584 10.3758 24.562 10.4077C24.539 10.4395 24.509 10.4656 24.475 10.4837C24.44 10.5019 24.402 10.5117 24.363 10.5122Z" fill="#999999"/>
</svg>
