<svg width="59" height="28" viewBox="0 0 59 28" fill="none" xmlns="http://www.w3.org/2000/svg">
<path d="M32.336 13.9399H23.721C23.75 14.8147 24.093 15.65 24.687 16.2931C24.971 16.5794 25.311 16.8039 25.687 16.9526C26.062 17.1012 26.464 17.1708 26.867 17.1569C27.558 17.1569 28.13 16.9961 28.583 16.6624C29.03 16.3348 29.536 15.7271 30.102 14.8395L32.443 16.1501C32.086 16.7637 31.699 17.2939 31.299 17.7407C30.894 18.1756 30.465 18.5331 30.001 18.825C29.538 19.1042 29.036 19.3111 28.511 19.4386C27.941 19.574 27.357 19.64 26.772 19.6352C24.979 19.6352 23.537 19.0633 22.453 17.9075C21.368 16.7518 20.826 15.2148 20.826 13.2965C20.826 11.3961 21.35 9.85904 22.405 8.68543C23.465 7.52372 24.871 6.94585 26.623 6.94585C28.392 6.94585 29.786 7.50585 30.817 8.63181C31.836 9.75181 32.348 11.3007 32.348 13.2846L32.336 13.9399ZM29.482 11.6701C29.095 10.1867 28.166 9.44798 26.682 9.44798C26.208 9.44179 25.74 9.55738 25.322 9.7837C24.905 10.01 24.553 10.3395 24.299 10.7407C24.121 11.0281 23.988 11.3417 23.906 11.6701H29.482ZM34.403 7.27947H37.179V8.35181C37.568 7.91177 38.027 7.53932 38.538 7.24968C38.983 7.03624 39.473 6.93209 39.967 6.94585C40.7 6.94585 41.463 7.18415 42.261 7.66075L40.992 10.1986C40.549 9.85009 40.007 9.65184 39.443 9.63266C37.936 9.63266 37.179 10.7765 37.179 13.0641V19.2956H34.403V7.27947ZM46.044 7.27947V19.2956H43.268V7.27947H46.044ZM42.851 4.72373C42.851 4.24117 43.03 3.81819 43.381 3.47266C43.739 3.11522 44.156 2.93649 44.65 2.93649C45.15 2.93649 45.579 3.11522 45.937 3.47266C46.288 3.81224 46.467 4.23522 46.467 4.73564C46.467 5.24202 46.288 5.665 45.931 6.02245C45.591 6.37989 45.162 6.55266 44.662 6.55266C44.161 6.55266 43.733 6.37394 43.381 6.01649C43.024 5.665 42.845 5.23607 42.845 4.72373H42.851ZM51.459 9.865V19.3016H48.671V9.865H47.682V7.27947H48.671V5.08117C48.671 3.56798 48.933 2.5016 49.458 1.87607C50.184 1.00628 51.233 0.56543 52.615 0.56543C53.11 0.56543 53.729 0.714366 54.48 1.00032V3.83607H52.716C52.133 3.83607 51.9 3.83607 51.68 4.13394C51.507 4.47351 51.459 4.77734 51.459 5.76032V7.27947H56.106V9.865H51.459Z" fill="#999999"/>
<path d="M58.424 7.2795V19.2957H55.647V7.2795H58.424ZM55.23 4.72376C55.23 4.2412 55.409 3.81823 55.761 3.47269C56.118 3.11525 56.535 2.93652 57.029 2.93652C57.53 2.93652 57.959 3.11525 58.31 3.47269C58.668 3.81227 58.846 4.23525 58.846 4.73567C58.846 5.24205 58.668 5.66503 58.31 6.02248C57.971 6.37993 57.542 6.55269 57.041 6.55269C56.541 6.55269 56.112 6.37397 55.761 6.01652C55.403 5.66503 55.224 5.2361 55.224 4.72376H55.23Z" fill="#999999"/>
<path fill-rule="evenodd" clip-rule="evenodd" d="M7.88702 9.1443C9.82302 10.9911 12.652 13.809 12.652 13.809C12.652 13.809 19.146 5.32558 25.294 1.23877L25.771 2.6626C23.525 4.22941 16.775 12.8379 14.13 20.4515C14.13 20.4515 7.082 12.7366 5.742 10.9792L7.88702 9.1443Z" fill="#999999"/>
<path d="M13.993 26.379C18.36 26.379 22.202 24.1152 24.401 20.6956H26.295C24.947 23.171 22.883 25.1819 20.374 26.465C17.864 27.7482 15.025 28.244 12.229 27.8876C9.43303 27.5311 6.81003 26.339 4.70302 24.4671C2.59502 22.5953 1.10205 20.131 0.418052 17.3965C-0.265948 14.6621 -0.107983 11.7849 0.870017 9.14146C1.84802 6.49799 3.60202 4.21134 5.90102 2.58069C8.20002 0.950035 10.937 0.0513216 13.756 0.00213287C16.574 -0.0470559 19.341 0.755571 21.696 2.305L20.588 3.53819C18.965 2.51537 17.127 1.88371 15.219 1.69308C13.31 1.50245 11.384 1.75807 9.59103 2.43976C7.79803 3.12144 6.189 4.21053 4.889 5.62104C3.59 7.03154 2.63605 8.72484 2.10305 10.5673C1.57005 12.4097 1.47202 14.3507 1.81802 16.2372C2.16402 18.1237 2.94403 19.9039 4.09603 21.4374C5.24803 22.9708 6.74102 24.2155 8.45602 25.0731C10.172 25.9307 12.063 26.3778 13.981 26.379H13.993Z" fill="#999999"/>
</svg>
